<?xml version="1.0" encoding="iso-8859-1"?>
<!-- Generator: Adobe Illustrator 19.0.0, SVG Export Plug-In . SVG Version: 6.00 Build 0)  -->
<svg version="1.1" id="Capa_1" xmlns="http://www.w3.org/2000/svg" xmlns:xlink="http://www.w3.org/1999/xlink" x="0px" y="0px"
	 viewBox="0 0 58 58" style="enable-background:new 0 0 58 58;" xml:space="preserve">
<path style="fill:#24AE5F;" d="M44,15.858v35.284C44,53.273,42.273,55,40.142,55H10.858C8.727,55,7,53.273,7,51.142V15.858
	C7,13.727,8.727,12,10.858,12h29.284C42.273,12,44,13.727,44,15.858z"/>
<rect x="29.073" y="41.531" transform="matrix(0.9213 0.3888 -0.3888 0.9213 19.9703 -9.5666)" style="fill:#FFFFFF;" width="9.105" height="6.07"/>
<line style="fill:none;stroke:#ECF0F1;stroke-width:2;stroke-linecap:round;stroke-miterlimit:10;" x1="13" y1="18" x2="38" y2="18"/>
<ellipse style="fill:none;stroke:#ECF0F1;stroke-width:2;stroke-linecap:round;stroke-miterlimit:10;" cx="35" cy="21" rx="2" ry="3"/>
<path style="fill:#BDC3C7;" d="M17.315,58h-5.63C10.754,58,10,57.246,10,56.315V55h9v1.315C19,57.246,18.246,58,17.315,58z"/>
<path style="fill:#BDC3C7;" d="M39.315,58h-5.63C32.754,58,32,57.246,32,56.315V55h9v1.315C41,57.246,40.246,58,39.315,58z"/>
<path style="fill:#546A79;" d="M46,28h-2v2h2c1.654,0,3,1.346,3,3s-1.346,3-3,3h-2v2h2c2.757,0,5-2.243,5-5S48.757,28,46,28z"/>
<path style="fill:#556080;" d="M32,4H20c-1.105,0-2-0.895-2-2v0c0-1.105,0.895-2,2-2h12c1.105,0,2,0.895,2,2v0
	C34,3.105,33.105,4,32,4z"/>
<g>
	<rect x="21" y="4" style="fill:#38454F;" width="2" height="8"/>
	<rect x="29" y="4" style="fill:#38454F;" width="2" height="8"/>
</g>
<g>
</g>
<g>
</g>
<g>
</g>
<g>
</g>
<g>
</g>
<g>
</g>
<g>
</g>
<g>
</g>
<g>
</g>
<g>
</g>
<g>
</g>
<g>
</g>
<g>
</g>
<g>
</g>
<g>
</g>
</svg>
