<?xml version="1.0" encoding="iso-8859-1"?>
<!-- Generator: Adobe Illustrator 19.0.0, SVG Export Plug-In . SVG Version: 6.00 Build 0)  -->
<svg xmlns="http://www.w3.org/2000/svg" xmlns:xlink="http://www.w3.org/1999/xlink" version="1.1" id="Layer_1" x="0px" y="0px" viewBox="0 0 463 463" style="enable-background:new 0 0 463 463;" xml:space="preserve" width="512px" height="512px">
<g>
	<g>
		<g>
			<path d="M367.5,40h-1.851l-4.222-21.108C359.238,7.945,349.547,0,338.383,0H124.617c-11.164,0-20.855,7.945-23.044,18.892     L97.351,40H95.5C86.953,40,80,46.953,80,55.5v16C80,80.047,86.953,87,95.5,87h8.813l3.112,73.127     c-3.524,0.434-6.846,2.066-9.32,4.648c-2.909,3.035-4.475,7.184-4.296,11.384l7.83,183.998     c0.344,8.135,6.856,14.53,14.928,14.815l2.463,57.866C119.747,449.752,133.57,463,150.5,463h162     c16.929,0,30.752-13.248,31.471-30.16l2.463-57.867c8.072-0.285,14.583-6.68,14.928-14.815v0.002l7.83-184.001     c0.179-4.199-1.387-8.348-4.296-11.383c-2.474-2.582-5.797-4.214-9.32-4.648L358.688,87h8.813c8.547,0,15.5-6.953,15.5-15.5v-16     C383,46.953,376.047,40,367.5,40z M116.281,21.833c0.791-3.959,4.297-6.833,8.335-6.833h213.766c4.038,0,7.544,2.874,8.335,6.833     L350.351,40H112.648L116.281,21.833z M328.984,432.202C328.607,441.061,321.367,448,312.5,448h-162     c-8.867,0-16.107-6.939-16.484-15.799L131.581,375h199.838L328.984,432.202z M346.375,359.521v0.002     c-0.012,0.268-0.23,0.478-0.499,0.478H117.124c-0.269,0-0.487-0.21-0.499-0.479l-7.83-183.999     c-0.002-0.059-0.009-0.213,0.139-0.367s0.303-0.154,0.361-0.154h244.41c0.059,0,0.213,0,0.361,0.154     c0.147,0.154,0.141,0.309,0.139,0.366L346.375,359.521z M119.326,87h224.348l-3.107,73H122.432L119.326,87z M368,71.5     c0,0.275-0.225,0.5-0.5,0.5h-272c-0.275,0-0.5-0.225-0.5-0.5v-16c0-0.275,0.225-0.5,0.5-0.5h272c0.275,0,0.5,0.225,0.5,0.5V71.5z     " fill="#000"/>
			<path d="M231.5,208c-32.809,0-59.5,26.691-59.5,59.5S198.69,327,231.5,327s59.5-26.691,59.5-59.5     C291,234.691,264.309,208,231.5,208z M231.5,312c-24.537,0-44.5-19.963-44.5-44.5s19.963-44.5,44.5-44.5s44.5,19.963,44.5,44.5     S256.036,312,231.5,312z" fill="#000"/>
		</g>
	</g>
</g>
<g>
</g>
<g>
</g>
<g>
</g>
<g>
</g>
<g>
</g>
<g>
</g>
<g>
</g>
<g>
</g>
<g>
</g>
<g>
</g>
<g>
</g>
<g>
</g>
<g>
</g>
<g>
</g>
<g>
</g>
</svg>
